<?xml version='1.0' encoding='utf-8'?>
<svg xmlns="http://www.w3.org/2000/svg" version="1.1" width="512" height="512" viewBox="500.25953690562505 152.15447201625 597.1436947530078 554.240525021875">
<path d="M0 0 C1.26606079 -0.00571014 2.53212158 -0.01142029 3.83654785 -0.01730347 C5.24757375 -0.01854889 6.65859977 -0.01967397 8.06962585 -0.02069092 C9.54947534 -0.02531813 11.02932364 -0.03034265 12.50917053 -0.03573608 C16.53611844 -0.04887218 20.56304966 -0.05530749 24.59001565 -0.05974674 C27.10505858 -0.06267575 29.62009693 -0.06678025 32.13513756 -0.07125092 C40.00161955 -0.08492954 47.86809109 -0.09459419 55.73458415 -0.09845281 C64.81979106 -0.10293347 73.9048475 -0.12048014 82.99000865 -0.1494534 C90.00918045 -0.17106205 97.0283099 -0.18115666 104.04751462 -0.18249393 C108.24123137 -0.18354262 112.43480676 -0.1894639 116.62848854 -0.20731354 C120.57407529 -0.22377999 124.5194142 -0.22595676 128.46502304 -0.21717453 C129.9126203 -0.21640336 131.36023079 -0.22075741 132.80779457 -0.23063278 C134.7852341 -0.24333097 136.76277296 -0.23569151 138.74023438 -0.22705078 C139.8465537 -0.22851734 140.95287302 -0.2299839 142.09271717 -0.2314949 C146.82574182 0.36165196 149.31258115 2.25213068 152.34074402 5.8482666 C155.46382431 11.89120483 154.61589112 19.18417928 154.57817078 25.81524658 C154.58359581 27.41418087 154.59072062 29.01311015 154.59941101 30.61203003 C154.61760795 34.94291974 154.61059037 39.2734272 154.59789467 43.60432339 C154.58774111 48.14756205 154.59716753 52.69076879 154.60343933 57.23400879 C154.61071186 64.86694181 154.60114152 72.49971991 154.58207703 80.13262939 C154.56034022 88.93669235 154.56733796 97.74038427 154.58938265 106.54443812 C154.60758525 114.11924292 154.61007036 121.69393653 154.59962797 129.26875615 C154.59341565 133.78564476 154.5924941 138.30235955 154.60577393 142.81923676 C154.61740164 147.07115742 154.60918159 151.32260438 154.5861969 155.57447433 C154.58094517 157.12758221 154.58236237 158.68073053 154.59124756 160.23382187 C154.66085929 173.64731168 152.54801899 184.18642082 143.06059265 194.14044189 C134.57548842 202.19410015 124.39096608 204.75672136 112.94877625 204.64215088 C111.37334297 204.65025536 111.37334297 204.65025536 109.76608276 204.65852356 C106.33010273 204.67092561 102.89497455 204.65457837 99.45903015 204.63653564 C97.05250505 204.63669081 94.6459797 204.63818263 92.23945618 204.64094543 C87.21129729 204.64232554 82.18342499 204.62983427 77.15531921 204.60699463 C70.725182 204.578581 64.29551942 204.5813611 57.86534691 204.59408474 C52.90152463 204.6010535 47.93781121 204.59323938 42.97400284 204.58082771 C40.60343977 204.57632704 38.23286496 204.57596425 35.86230087 204.57989311 C32.54583176 204.5828178 29.23000742 204.56623855 25.91362 204.54449463 C24.94402847 204.54899628 23.97443695 204.55349792 22.97546387 204.55813599 C13.14288755 204.45153995 5.29786031 201.90410513 -1.93940735 195.14044189 C-12.16973657 184.22950865 -14.6900948 173.35621987 -14.60224915 158.78033447 C-14.61067754 157.15623302 -14.62120936 155.53214134 -14.63366699 153.9080658 C-14.66056483 149.52797866 -14.65605591 145.14846458 -14.64396644 140.76833177 C-14.63680453 137.10263735 -14.64535453 133.43704687 -14.65387183 129.77136058 C-14.67377457 121.12321378 -14.66830792 112.47534379 -14.64619446 103.82720947 C-14.62380368 94.91948331 -14.64147328 86.01248087 -14.67924374 77.10482293 C-14.71050409 69.43824155 -14.71838663 61.77188388 -14.70728999 54.10524672 C-14.70081481 49.53420483 -14.70274918 44.96358089 -14.726614 40.39258766 C-14.74790346 36.09693545 -14.73984059 31.80230404 -14.70952034 27.50671577 C-14.70320725 25.93460552 -14.70701928 24.36241552 -14.72193146 22.79036331 C-14.84671836 8.47049322 -14.84671836 8.47049322 -9.42048359 2.4265852 C-6.36651991 -0.22542881 -3.94961795 0.01063057 0 0 Z " fill="#07AE7A" transform="translate(921.9394073486328,396.85955810546875)" />
<path d="M0 0 C0.72407043 -0.00335861 1.44814087 -0.00671722 2.19415283 -0.01017761 C4.58331018 -0.01966222 6.97239727 -0.02162938 9.36157227 -0.02270508 C11.025396 -0.02591908 12.68921946 -0.02928327 14.3530426 -0.03279114 C17.83904679 -0.03877595 21.3250262 -0.04063167 24.81103516 -0.04003906 C29.2743267 -0.03993741 33.73745929 -0.05359601 38.20071316 -0.07081127 C41.63654813 -0.08193753 45.07234473 -0.08395809 48.50819588 -0.08342934 C50.15360119 -0.08460826 51.79900752 -0.08902513 53.44439507 -0.0967617 C55.74689713 -0.10657547 58.04905471 -0.10367832 60.3515625 -0.09765625 C61.66076157 -0.09908127 62.96996063 -0.10050629 64.3188324 -0.10197449 C67.61168262 0.13595726 69.76621255 0.79772233 72.74047852 2.14526367 C75.49922122 2.45839604 75.49922122 2.45839604 78.30297852 2.39526367 C79.69709961 2.40299805 79.69709961 2.40299805 81.11938477 2.41088867 C83.69347406 2.32901809 83.69347406 2.32901809 85.49172974 1.14582825 C88.52586144 -0.2041868 91.02416568 -0.11645289 94.34155273 -0.12939453 C94.99574188 -0.13450546 95.64993103 -0.13961639 96.32394409 -0.1448822 C98.48111181 -0.15875314 100.63795906 -0.15782315 102.79516602 -0.15551758 C104.2996533 -0.15940636 105.80413949 -0.1637414 107.30862427 -0.16850281 C110.46091267 -0.17595997 113.61308907 -0.17567777 116.76538086 -0.17041016 C120.79597998 -0.16462111 124.82611873 -0.18153491 128.85664177 -0.20475483 C131.96398581 -0.21952118 135.07121977 -0.22035986 138.17859268 -0.2172451 C139.66408321 -0.21775702 141.1495801 -0.22297046 142.63503647 -0.23305702 C144.71719584 -0.24545877 146.79846898 -0.23860816 148.88061523 -0.22705078 C150.06323944 -0.22768021 151.24586365 -0.22830963 152.46432495 -0.22895813 C156.32234755 0.21172822 159.9200608 1.32484595 162.74047852 4.14526367 C162.94498957 7.39471703 163.08625511 10.63681288 163.17016602 13.89135742 C163.392005 18.87349126 164.36384845 22.66330834 166.74047852 27.14526367 C167.76690712 27.95986557 167.76690712 27.95986557 168.81407166 28.79092407 C171.71710381 32.33883687 171.30831494 35.58412215 171.27392578 40.04125977 C171.28254135 40.93928818 171.29115692 41.83731659 171.30003357 42.76255798 C171.32273824 45.73156552 171.31594546 48.69963245 171.30688477 51.66870117 C171.31211904 53.7336963 171.3183948 55.79868903 171.32566833 57.86367798 C171.33608139 62.19300581 171.33149901 66.52200517 171.31689453 70.85131836 C171.29972177 76.3954772 171.32317899 81.93859824 171.35838413 87.48264122 C171.3803633 91.74810639 171.37891507 96.01332355 171.37061882 100.27882767 C171.36979927 102.32253786 171.37666328 104.36626626 171.39138985 106.40992355 C171.40884128 109.27075339 171.39428733 112.12972296 171.37158203 114.99047852 C171.38912033 116.25312279 171.38912033 116.25312279 171.40701294 117.54127502 C171.34185073 121.58358822 171.02377385 124.3346068 168.51353455 127.59243774 C163.8404089 131.89443388 160.015922 132.39555777 153.76368713 132.40596008 C153.07352806 132.40978563 152.38336898 132.41361118 151.67229599 132.41755265 C149.36625072 132.42784805 147.06045605 132.42389716 144.75439453 132.41992188 C143.09838633 132.42427026 141.44238015 132.42945383 139.78637695 132.43540955 C135.29258915 132.44879689 130.79888546 132.44937853 126.30508161 132.44684625 C122.55254373 132.4457764 118.80002286 132.45066022 115.04748863 132.45545167 C106.19440656 132.46654584 97.34136691 132.4669847 88.48828125 132.4609375 C79.3570377 132.4548962 70.22594818 132.4672129 61.09473091 132.48850757 C53.25255303 132.50612323 45.41042417 132.512125 37.56822723 132.50886983 C32.88549005 132.50705685 28.20286276 132.50969469 23.52014351 132.52358437 C19.11651493 132.53615758 14.71312652 132.53422343 10.30950165 132.52117348 C8.69462185 132.51880708 7.07972518 132.52154467 5.46486473 132.5297966 C3.25771595 132.54026071 1.05137354 132.53216691 -1.15574646 132.51948547 C-3.00710536 132.51973709 -3.00710536 132.51973709 -4.89586544 132.51999378 C-9.91187735 131.96118198 -13.15653779 130.33767848 -16.57202148 126.64526367 C-18.88754075 123.21486476 -19.38532143 120.65154947 -19.4066925 116.61088562 C-19.41384781 115.68146149 -19.42100311 114.75203735 -19.42837524 113.79444885 C-19.4324086 112.26786903 -19.4324086 112.26786903 -19.43652344 110.71044922 C-19.44309464 109.63700256 -19.44966583 108.56355591 -19.45643616 107.45758057 C-19.47617537 103.89904717 -19.48783244 100.34055597 -19.49780273 96.78198242 C-19.50187826 95.56760813 -19.50595379 94.35323383 -19.51015282 93.10206032 C-19.53101499 86.67611485 -19.54531679 80.25019076 -19.5546875 73.82421875 C-19.56575957 67.18280517 -19.60016864 60.5417341 -19.6398592 53.900424 C-19.66598459 48.79691437 -19.67437568 43.69348495 -19.67796898 38.58991432 C-19.68284449 36.1414851 -19.69448574 33.69305969 -19.71300697 31.24469566 C-19.73731349 27.81894672 -19.73644858 24.39407021 -19.72949219 20.96826172 C-19.74230225 19.95661453 -19.7551123 18.94496735 -19.76831055 17.90266418 C-19.72449246 11.98426733 -19.15675626 8.67705938 -15.25952148 4.14526367 C-10.57103417 -0.10367796 -6.16274127 0.01795404 0 0 Z " fill="#1F3245" transform="translate(738.259521484375,553.854736328125)" />
<path d="M0 0 C1.39867958 -0.00322355 2.79735521 -0.00904716 4.1960144 -0.01725769 C7.97521625 -0.0317313 11.75334622 -0.00892983 15.53241849 0.02160144 C19.49693546 0.04806399 23.46142283 0.04266828 27.42601013 0.04151917 C34.08122564 0.04432374 40.73602935 0.07030295 47.39111328 0.11132812 C55.07451782 0.15851874 62.757472 0.17432145 70.44101101 0.17212147 C78.63832266 0.17009173 86.83546181 0.19093131 95.03272128 0.21846128 C97.38759507 0.22484068 99.74244083 0.22698281 102.09732246 0.22817802 C105.8034194 0.23120213 109.50914157 0.24960308 113.21511459 0.27967644 C115.21633309 0.29255111 117.21762851 0.29094275 119.21888733 0.28884888 C127.17197911 0.37355767 132.52511243 0.82354725 138.82592773 5.97875977 C144.83896914 13.32803259 144.51803029 20.33354025 144.47436523 29.51000977 C144.47638975 30.85087237 144.47930433 32.1917339 144.48306274 33.53259277 C144.48746839 36.33327795 144.48111244 39.13367471 144.46704102 41.93432617 C144.4499497 45.50854708 144.45980043 49.08209199 144.47775841 52.65628815 C144.48864428 55.42227186 144.48512807 58.18809761 144.47737503 60.9540863 C144.47442539 62.90766849 144.48347156 64.86125704 144.49276733 66.81481934 C144.42976617 74.79711388 143.99923173 80.15583266 138.82592773 86.47875977 C131.53190788 92.44659419 124.64555698 92.16037872 115.54077148 92.11694336 C114.17179954 92.12101333 112.80283089 92.12635759 111.43386841 92.13287354 C107.73136908 92.14650253 104.02912169 92.14126691 100.32661819 92.13173628 C96.44348749 92.12411668 92.56037769 92.13119166 88.67724609 92.13589478 C82.1574315 92.14134565 75.637719 92.13417831 69.11791992 92.11987305 C61.59076854 92.10354777 54.06386098 92.10883675 46.53671551 92.12535226 C40.06261204 92.13898623 33.58858177 92.14087747 27.11446857 92.13303626 C23.25277526 92.12837022 19.39119637 92.12770533 15.5295105 92.13764572 C11.89816811 92.14634102 8.26713867 92.14024714 4.63582993 92.12296295 C2.67512181 92.11713374 0.71438709 92.12599176 -1.24630737 92.13534546 C-9.13954455 92.07863777 -14.41924353 91.59634691 -20.67407227 86.47875977 C-26.66453536 79.15708265 -26.37880263 72.16138401 -26.35766602 63.01782227 C-26.36223567 61.68174985 -26.36754356 60.34567977 -26.37355042 59.00961304 C-26.38245294 56.2173301 -26.38009224 53.42533358 -26.37011719 50.63305664 C-26.35864319 47.07682714 -26.37882785 43.52159301 -26.40803432 39.96549416 C-26.42649454 37.2079961 -26.42608435 34.45073214 -26.4203968 31.69318771 C-26.42017142 29.75185684 -26.43698096 27.81054766 -26.45420837 25.86929321 C-26.39183589 17.90402921 -25.91457667 11.18712713 -20.42247772 5.05111217 C-14.11529155 -0.35176011 -8.02396621 -0.10426438 0 0 Z " fill="#D92330" transform="translate(546.924072265625,221.271240234375)" />
<path d="M0 0 C1.96233569 0.00169514 3.92467518 0.00073718 5.88700867 -0.00265503 C11.18192239 -0.0043677 16.4760109 0.03076405 21.77073383 0.07278872 C27.31600508 0.11044463 32.86129787 0.11383277 38.40667725 0.12094116 C48.89312682 0.13954642 59.37919849 0.18872495 69.86548209 0.2490381 C81.80985687 0.31623784 93.75425025 0.34912608 105.69876719 0.37921071 C130.25609289 0.44182782 154.81308381 0.54727868 179.37011719 0.68115234 C179.37011719 1.34115234 179.37011719 2.00115234 179.37011719 2.68115234 C180.36011719 2.68115234 181.35011719 2.68115234 182.37011719 2.68115234 C182.37011719 2.02115234 182.37011719 1.36115234 182.37011719 0.68115234 C184.53561954 0.57166065 186.70278577 0.49489739 188.87011719 0.43115234 C190.67996094 0.36154297 190.67996094 0.36154297 192.52636719 0.29052734 C201.00928253 1.15261224 206.37731549 6.10582355 212.16308594 11.98828125 C212.89577194 12.71717056 213.62845795 13.44605988 214.38334656 14.19703674 C216.78463253 16.59095705 219.1712886 18.99889173 221.55761719 21.40771484 C223.2269715 23.07945478 224.89706737 24.75045452 226.56787109 26.42074585 C230.05718333 29.91317866 233.53969437 33.41220623 237.01708984 36.91650391 C241.48380348 41.41732784 245.96370261 45.90474112 250.44825745 50.38778114 C253.89223688 53.83230296 257.33099078 57.2820007 260.76797485 60.73350143 C262.4190712 62.39097722 264.07139502 64.04723116 265.72494507 65.70225906 C268.0258233 68.00745059 270.32000863 70.31909086 272.61230469 72.6328125 C273.30104172 73.32064316 273.98977875 74.00847382 274.6993866 74.71714783 C275.31888687 75.34517807 275.93838715 75.97320831 276.57666016 76.62026978 C277.1193454 77.16630671 277.66203064 77.71234364 278.22116089 78.27492714 C279.37011719 79.68115234 279.37011719 79.68115234 279.37011719 81.68115234 C280.03011719 81.68115234 280.69011719 81.68115234 281.37011719 81.68115234 C284.93347908 88.3430898 285.51902082 93.71004971 285.51728821 101.18995667 C285.5209649 102.04486897 285.52464158 102.89978127 285.52842969 103.78060001 C285.53943922 106.64402266 285.54330563 109.50740899 285.54711914 112.37084961 C285.55338554 114.42418533 285.5600325 116.47751992 285.56703186 118.53085327 C285.58804253 125.26974705 285.59842709 132.008641 285.60839844 138.74755859 C285.61244622 141.06698048 285.61656315 143.38640225 285.62074852 145.7058239 C285.63978858 156.59597097 285.65402569 167.48611128 285.66236049 178.37627178 C285.67214808 190.95700366 285.69851224 203.53756031 285.73886138 216.1182304 C285.76897163 225.83890929 285.78382427 235.55953777 285.7871415 245.28026241 C285.78949656 251.08862425 285.79851719 256.89679862 285.82360268 262.70511055 C285.84680123 268.16426119 285.85114984 273.62309977 285.84084129 279.08228683 C285.84034392 281.08825529 285.84672332 283.09423869 285.86039734 285.1001606 C285.87799218 287.83359633 285.87107191 290.56589679 285.85786438 293.29933167 C285.87431825 294.49655101 285.87431825 294.49655101 285.89110452 295.7179566 C285.85020322 299.21141425 285.66593649 301.27617152 283.57791424 304.13470364 C280.33352084 306.40723497 277.25608375 307.24454526 273.37011719 306.68115234 C269.44233947 304.40875987 266.81258871 302.00856692 265.37011719 297.68115234 C265.27647725 295.0589097 265.23978329 292.4636679 265.24986267 289.84150696 C265.24858103 288.63097232 265.24858103 288.63097232 265.2472735 287.39598244 C265.24562204 284.68282988 265.25113466 281.96973869 265.2565918 279.2565918 C265.25687377 277.31528729 265.25671574 275.37398267 265.25614929 273.43267822 C265.2558617 268.1540893 265.26175231 262.87552298 265.26872325 257.59693933 C265.2749631 252.08360422 265.27556109 246.57026863 265.27674866 241.05693054 C265.2798601 230.61285668 265.288071 220.16879326 265.29809815 209.72472399 C265.30926506 197.83612749 265.31477119 185.94753049 265.31979358 174.05893004 C265.33025375 149.59966502 265.3478496 125.14040926 265.37011719 100.68115234 C264.60083389 100.68781418 263.8315506 100.69447601 263.03895569 100.70133972 C255.75728697 100.7616753 248.47574102 100.80724005 241.19388676 100.83658886 C237.45100728 100.85218508 233.70833592 100.87331133 229.96557617 100.9074707 C226.34752317 100.94028188 222.72966921 100.9580507 219.11147881 100.96578407 C217.73729765 100.97128885 216.36312628 100.98203747 214.98903084 100.99834251 C205.63175514 101.10486957 197.99017894 100.73213652 190.05761719 95.49365234 C184.63859469 89.82258229 182.24077677 83.4459765 182.2565918 75.64916992 C182.25666733 74.40810989 182.25674286 73.16704987 182.25682068 71.88838196 C182.26192728 70.53414876 182.26714328 69.17991598 182.27246094 67.82568359 C182.27432636 66.43991649 182.27574967 65.05414873 182.27674866 63.66838074 C182.28056409 60.02367324 182.29038606 56.37900569 182.30145264 52.73431396 C182.31168769 49.01412496 182.31625077 45.2939295 182.32128906 41.57373047 C182.3320092 34.27618623 182.34907394 26.97867489 182.37011719 19.68115234 C156.78804483 19.71830757 131.20611279 19.77815154 105.62415886 19.86505508 C93.7461817 19.90487553 81.86827109 19.93725277 69.99023438 19.95214844 C59.63812683 19.96514935 49.28616552 19.99207415 38.93414032 20.03576541 C33.45208178 20.05841524 27.97020382 20.07406091 22.48809433 20.07303619 C17.32851105 20.07229167 12.16932752 20.09015908 7.00984764 20.12232018 C5.11601903 20.13084113 3.2221457 20.13255426 1.3283062 20.12695503 C-1.25808873 20.12032662 -3.84320746 20.13820727 -6.42947388 20.16217041 C-7.17851364 20.15440999 -7.92755341 20.14664958 -8.69929135 20.13865399 C-14.70140393 20.23706728 -18.31084466 22.28665742 -22.43066406 26.54052734 C-23.9836446 29.3126229 -24.37391885 31.79279201 -24.81738281 34.93115234 C-25.08550781 36.82865234 -25.35363281 38.72615234 -25.62988281 40.68115234 C-31.89988281 40.68115234 -38.16988281 40.68115234 -44.62988281 40.68115234 C-45.16507463 27.03376106 -43.54351249 19.47904939 -34.62988281 9.10302734 C-23.61301466 0.20920149 -13.51308847 -0.16437564 0 0 Z " fill="#1F3245" transform="translate(605.6298828125,172.31884765625)" />
<path d="M0 0 C0.85244293 -0.00960754 1.70488586 -0.01921509 2.5831604 -0.02911377 C3.51526337 -0.03336365 4.44736633 -0.03761353 5.40771484 -0.04199219 C6.36954681 -0.04769226 7.33137878 -0.05339233 8.32235718 -0.05926514 C10.37195734 -0.06874205 12.42157293 -0.07525973 14.47119141 -0.07910156 C17.55709158 -0.08867618 20.64228752 -0.11961681 23.72802734 -0.15136719 C46.97876795 -0.27788805 66.52098501 3.58501256 84.08349609 20.12988281 C93.91376115 30.6269711 99.15932909 44.36901712 99.09130859 58.65332031 C99.08881104 59.73468262 99.08631348 60.81604492 99.08374023 61.93017578 C99.07463623 63.2851416 99.06553223 64.64010742 99.05615234 66.03613281 C99.03552734 70.36738281 99.01490234 74.69863281 98.99365234 79.16113281 C109.88365234 79.16113281 120.77365234 79.16113281 131.99365234 79.16113281 C132.99365234 84.16113281 132.99365234 84.16113281 132.10424805 85.94360352 C131.63075928 86.485896 131.15727051 87.02818848 130.66943359 87.58691406 C129.8772644 88.52216919 129.8772644 88.52216919 129.0690918 89.47631836 C128.48732178 90.13543213 127.90555176 90.7945459 127.30615234 91.47363281 C126.09515392 92.90106359 124.88688681 94.33081536 123.68115234 95.76269531 C123.06369141 96.49133789 122.44623047 97.21998047 121.81005859 97.97070312 C119.01742262 101.33838189 116.4067314 104.83176099 113.80615234 108.34863281 C112.82072257 109.67563942 111.83504862 111.00246474 110.84912109 112.32910156 C110.37394043 112.96895996 109.89875977 113.60881836 109.40917969 114.26806641 C107.17542343 117.25539756 104.89938575 120.20959546 102.61865234 123.16113281 C99.94561107 126.62111744 97.28854604 130.08893493 94.68115234 133.59863281 C94.21837891 134.20578125 93.75560547 134.81292969 93.27880859 135.43847656 C92.41783669 136.59254529 91.59194231 137.77357597 90.80224609 138.97753906 C88.41269735 142.37653415 87.21086659 143.12320651 83.05615234 143.84863281 C79.36805929 143.87135207 77.23079487 142.08010742 74.52661133 139.69311523 C71.85582249 137.02402781 69.69177174 134.03456896 67.49365234 130.97363281 C66.44572387 129.5454104 65.39617916 128.11837277 64.34521484 126.69238281 C63.52778809 125.58056641 63.52778809 125.58056641 62.69384766 124.44628906 C59.81323161 120.57458226 56.84111009 116.77501123 53.86865234 112.97363281 C47.03540396 104.22647679 47.03540396 104.22647679 44.09521484 100.37988281 C43.65491943 99.80391357 43.21462402 99.22794434 42.76098633 98.63452148 C41.54944656 97.04675322 40.33986129 95.45749415 39.13037109 93.86816406 C37.27721284 91.52037856 35.34776659 89.34290364 33.30615234 87.16113281 C32.54302734 86.17113281 31.77990234 85.18113281 30.99365234 84.16113281 C31.32365234 82.51113281 31.65365234 80.86113281 31.99365234 79.16113281 C42.88365234 79.16113281 53.77365234 79.16113281 64.99365234 79.16113281 C64.79787832 58.22819249 64.79787832 58.22819249 54.46630859 40.61035156 C45.67057748 32.57252926 36.91084795 31.0856443 25.28662109 30.87988281 C23.63232413 30.84212625 21.97802726 30.80436572 20.32373047 30.76660156 C17.73854917 30.71277962 15.15333999 30.66057672 12.56811523 30.60888672 C10.0575157 30.5572585 7.54708866 30.50002186 5.03662109 30.44238281 C4.25957321 30.42880737 3.48252533 30.41523193 2.68193054 30.40124512 C-2.78048277 30.27406526 -2.78048277 30.27406526 -5.00634766 29.16113281 C-5.03100647 25.19182292 -5.04918789 21.22254247 -5.0612793 17.25317383 C-5.06631822 15.90192895 -5.07314943 14.55068955 -5.08178711 13.19946289 C-5.09387185 11.26092847 -5.09904594 9.32235481 -5.10400391 7.38378906 C-5.10924072 6.215979 -5.11447754 5.04816895 -5.11987305 3.8449707 C-4.94306371 -0.33495405 -3.78674518 0.03438485 0 0 Z " fill="#0292D5" transform="translate(900.00634765625,221.8388671875)" />
<path d="M0 0 C6.27 0 12.54 0 19 0 C19.00238835 1.32928591 19.00477671 2.65857182 19.00723743 4.02813911 C19.06458978 35.57841768 19.13731496 67.12861951 19.22898628 98.67881603 C19.24025453 102.56159318 19.25139297 106.44437069 19.26245117 110.32714844 C19.26465486 111.1001438 19.26685854 111.87313916 19.269129 112.66955863 C19.30450721 125.18792325 19.32936839 137.70628781 19.35034702 150.2246839 C19.3721049 163.06847385 19.4051552 175.91219889 19.44870156 188.75593364 C19.47521852 196.68204213 19.49291355 204.60806973 19.49934604 212.53422038 C19.50522062 218.61067849 19.52680178 224.68697694 19.55427551 230.76338005 C19.56308342 233.25708553 19.56677266 235.75081504 19.56500816 238.24453545 C19.5633614 241.64518163 19.58000452 245.0452625 19.60127258 248.4458313 C19.59642501 249.43610986 19.59157743 250.42638842 19.58658296 251.44667542 C19.64184192 256.788454 20.18902269 260.30189161 23 265 C23 265.66 23 266.32 23 267 C24.32338632 267.68620031 25.65949948 268.34786461 27 269 C27.6638269 269.3482634 28.32765381 269.69652679 29.01159668 270.05534363 C33.38363265 271.43737651 37.56836043 271.2666583 42.12695312 271.23950195 C43.1437767 271.24151611 44.16060028 271.24353027 45.20823669 271.24560547 C47.41262032 271.24914677 49.61701412 271.24838906 51.82139587 271.24382973 C55.3098014 271.23823546 58.7978746 271.2473966 62.28625488 271.2610321 C72.20305889 271.29816123 82.11974952 271.31668087 92.03662109 271.30541992 C98.10500063 271.2995737 104.17291166 271.31780431 110.24119568 271.35130882 C112.55365185 271.35927008 114.86615897 271.35797611 117.17860413 271.34728432 C120.41060483 271.33298121 123.64112807 271.3492036 126.87304688 271.37231445 C127.82904282 271.36054672 128.78503876 271.34877899 129.77000427 271.33665466 C134.37785187 271.40133819 136.35491833 271.49740049 140.09362793 274.4103241 C142.48551944 277.65954491 142.67573585 279.18479501 142.43359375 283.06640625 C141.75194607 286.10618646 140.19767713 287.86696044 138 290 C135.7036541 291.14817295 134.40765543 291.1304057 131.85403442 291.14044189 C130.98514084 291.14615204 130.11624725 291.15186218 129.22102356 291.15774536 C127.78734688 291.15942215 127.78734688 291.15942215 126.32470703 291.16113281 C125.31956558 291.16609772 124.31442413 291.17106262 123.27882385 291.17617798 C119.93847984 291.1908337 116.59818344 291.19761004 113.2578125 291.203125 C110.93529255 291.2088771 108.61277261 291.21463483 106.29025269 291.22039795 C101.40931985 291.23091998 96.52840353 291.23675364 91.64746094 291.24023438 C85.41582811 291.24569779 79.18441614 291.26967457 72.95285225 291.29820633 C68.14848209 291.3169099 63.34416407 291.32204258 58.53976059 291.32357025 C56.2442289 291.32658386 53.94869785 291.33456839 51.65320206 291.34775543 C20.79712529 291.51224666 20.79712529 291.51224666 10 282 C1.64082885 273.3475246 -0.46362773 264.6783029 -0.36076355 252.89524841 C-0.36332682 251.80950077 -0.3658901 250.72375312 -0.36853105 249.60510403 C-0.3734534 245.98454811 -0.35700113 242.36441368 -0.34057617 238.74389648 C-0.33972957 236.14161692 -0.34020569 233.53933664 -0.34190369 230.9370575 C-0.34347262 225.34356297 -0.33410338 219.75017387 -0.31719017 214.15670586 C-0.29275291 206.06962418 -0.28499008 197.98259321 -0.2812262 189.89547861 C-0.27466911 176.77298228 -0.25472815 163.65054206 -0.22631836 150.52807617 C-0.19875853 137.78491495 -0.17753438 125.04176901 -0.16479492 112.29858398 C-0.16400675 111.51238166 -0.16321858 110.72617934 -0.16240653 109.91615271 C-0.15849126 105.9717937 -0.15470017 102.02743459 -0.15097082 98.0830754 C-0.11989804 65.38867571 -0.06685867 32.69434632 0 0 Z " fill="#1F3245" transform="translate(561,322)" />
<path d="M0 0 C1.00897339 0.00326294 1.00897339 0.00326294 2.03833008 0.0065918 C4.08859551 0.00974867 6.13741342 -0.01369197 8.1875 -0.0390625 C9.47720703 -0.03970703 10.76691406 -0.04035156 12.09570312 -0.04101562 C13.28220459 -0.04399658 14.46870605 -0.04697754 15.69116211 -0.05004883 C18.66210938 0.32226562 18.66210938 0.32226562 20.32650757 1.48001099 C22.21902279 4.09044092 22.0228475 5.96490398 22.00268555 9.1706543 C22.00245895 10.37167282 22.00223236 11.57269135 22.0019989 12.81010437 C21.98651505 14.10704727 21.97103119 15.40399017 21.95507812 16.74023438 C21.94948171 18.08115668 21.94521183 19.42208512 21.94221497 20.76301575 C21.93076955 24.28950993 21.90130555 27.81563247 21.86810303 31.34197998 C21.83739526 34.94147718 21.82370816 38.54103452 21.80859375 42.140625 C21.77643516 49.20132377 21.72524282 56.26177041 21.66210938 63.32226562 C22.62101074 63.31179199 23.57991211 63.30131836 24.56787109 63.29052734 C28.11991656 63.25437234 31.67194572 63.23138169 35.22412109 63.21240234 C36.76256036 63.20233445 38.30098045 63.18867916 39.83935547 63.17138672 C42.0485507 63.14717246 44.25749332 63.13579072 46.46679688 63.12695312 C47.15643524 63.11663055 47.84607361 63.10630798 48.55661011 63.09567261 C50.26011844 63.09527084 51.9629688 63.20035537 53.66210938 63.32226562 C54.32210937 63.98226562 54.98210937 64.64226562 55.66210938 65.32226562 C55.3081375 68.41755299 54.17090444 70.2458045 52.17773438 72.58007812 C51.66122314 73.1964917 51.14471191 73.81290527 50.61254883 74.44799805 C49.7708313 75.4376355 49.7708313 75.4376355 48.91210938 76.44726562 C43.42968778 83.03272272 38.32451038 89.80515495 33.35546875 96.78369141 C29.20324453 102.60671576 24.89842029 108.28491362 20.49023438 113.91601562 C18.66189862 116.16853168 18.66189862 116.16853168 17.66210938 118.32226562 C17.00210938 118.32226562 16.34210937 118.32226562 15.66210938 118.32226562 C15.45585938 119.04414062 15.24960937 119.76601563 15.03710938 120.50976562 C13.18553948 124.29706769 11.20287964 126.0508281 7.66210938 128.32226562 C3.38882976 128.47220526 1.43278026 127.9425617 -1.90039062 125.25976562 C-6.63746485 119.55098386 -10.9485634 113.50388818 -15.33496094 107.52392578 C-21.56243483 99.03617376 -27.88442679 90.63912766 -34.33789062 82.32226562 C-35.27224818 81.10670652 -36.20581646 79.8905404 -37.13867188 78.67382812 C-37.60047852 78.0716748 -38.06228516 77.46952148 -38.53808594 76.84912109 C-39.42711278 75.68956243 -40.31580039 74.52974358 -41.20410156 73.36962891 C-43.16265037 70.75334857 -43.16265037 70.75334857 -45.33789062 68.32226562 C-45.33789062 66.67226563 -45.33789062 65.02226562 -45.33789062 63.32226562 C-34.44789063 63.32226562 -23.55789063 63.32226562 -12.33789062 63.32226562 C-12.36109375 58.94203125 -12.38429688 54.56179688 -12.40820312 50.04882812 C-12.42106018 46.56168736 -12.4319075 43.07455328 -12.44139099 39.58740234 C-12.45196329 35.90327213 -12.46609703 32.21923356 -12.48876953 28.53515625 C-12.51046053 24.98846907 -12.52245129 21.4418709 -12.52764511 17.89512253 C-12.53134763 16.5402931 -12.53857752 15.18546868 -12.54935074 13.83067703 C-12.5638151 11.93680805 -12.56470711 10.04284998 -12.56494141 8.14892578 C-12.56938263 7.06970856 -12.57382385 5.99049133 -12.57839966 4.87857056 C-11.95169243 -1.78252966 -5.1391831 0.02827965 0 0 Z " fill="#0292D5" transform="translate(810.337890625,415.677734375)" />
<path d="M0 0 C1.92866913 -0.00845947 1.92866913 -0.00845947 3.89630127 -0.01708984 C5.32939204 -0.01320085 6.76248225 -0.00910449 8.1955719 -0.00482178 C9.69837107 -0.00753057 11.20116892 -0.01109087 12.70396423 -0.01544189 C16.79279274 -0.02458232 20.88152065 -0.02101467 24.97035098 -0.01468372 C29.2437561 -0.00963132 33.51715242 -0.01431314 37.79055786 -0.01745605 C44.96903535 -0.02109832 52.14747174 -0.01629021 59.32594299 -0.0067749 C67.6306629 0.00410601 75.93528458 0.00058777 84.2400021 -0.01042771 C91.36275653 -0.01949813 98.48548137 -0.02078695 105.60823971 -0.01555037 C109.86556646 -0.01242879 114.12284702 -0.01202642 118.38017082 -0.01862335 C122.38317724 -0.02439248 126.38605684 -0.02040791 130.38904953 -0.00883484 C131.86005378 -0.00618575 133.33106866 -0.00695759 134.80206871 -0.01136017 C136.80651855 -0.01680706 138.81099165 -0.00877257 140.81542969 0 C141.93834128 0.00075405 143.06125288 0.0015081 144.2181921 0.002285 C146.97120667 0.25396729 146.97120667 0.25396729 149.97120667 2.25396729 C150.24788892 4.84823526 150.34415908 7.16660374 150.28370667 9.75396729 C150.28692932 10.44361572 150.29015198 11.13326416 150.29347229 11.84381104 C150.23833259 16.98684136 150.23833259 16.98684136 147.97120667 19.25396729 C145.32562256 19.50564957 145.32562256 19.50564957 141.89772034 19.50793457 C139.95426224 19.51639404 139.95426224 19.51639404 137.97154236 19.52502441 C136.52741949 19.52113544 135.08329717 19.51703908 133.63917542 19.51275635 C132.12490165 19.5154651 130.61062919 19.51902538 129.09635925 19.52337646 C124.97660739 19.53251652 120.85695537 19.52894959 116.73720169 19.52261829 C112.43263218 19.51756664 108.12807142 19.52224741 103.82350159 19.52539062 C96.59374959 19.52903271 89.36403841 19.52422482 82.1342926 19.51470947 C73.76706897 19.50382445 65.39994279 19.50734986 57.03272152 19.51836228 C49.85817853 19.52742826 42.68366494 19.52872382 35.50911808 19.52348495 C31.21996525 19.52036144 26.93085828 19.5199663 22.64170837 19.52655792 C18.60997819 19.53232076 14.57837408 19.52835409 10.54665756 19.51676941 C9.06394536 19.51411711 7.58122261 19.51489758 6.09851456 19.51929474 C4.0805778 19.52472898 2.06261795 19.51671818 0.04469299 19.50793457 C-1.65211861 19.50680349 -1.65211861 19.50680349 -3.38320923 19.50564957 C-6.02879333 19.25396729 -6.02879333 19.25396729 -8.02879333 17.25396729 C-8.22728404 14.70861588 -8.30731108 12.2967997 -8.27879333 9.75396729 C-8.28652771 9.06431885 -8.29426208 8.37467041 -8.30223083 7.66412354 C-8.27542234 0.78774479 -6.56581312 0.00441052 0 0 Z " fill="#0292D5" transform="translate(628.0287933349609,411.74603271484375)" />
<path d="M0 0 C11.64501577 0.12999588 21.25920912 1.03026261 29.92260742 9.58422852 C36.42126893 16.69264098 38.9502798 23.28001156 38.78198242 33.04125977 C37.82952125 40.84875836 34.53491561 48.19566218 28.50463867 53.31469727 C25.62224487 55.30518053 22.71873067 56.92430487 19.50463867 58.31469727 C18.9093335 58.57871338 18.31402832 58.84272949 17.70068359 59.11474609 C10.6882557 61.86925179 3.88671562 61.65655054 -3.55786133 61.50219727 C-4.8050293 61.48866211 -6.05219727 61.47512695 -7.3371582 61.46118164 C-10.39035099 61.42608747 -13.44262123 61.37691994 -16.49536133 61.31469727 C-17.81074445 58.68393102 -17.62246458 56.72523395 -17.62475586 53.77929688 C-17.62790802 52.62147202 -17.63106018 51.46364716 -17.63430786 50.27073669 C-17.63228363 49.01551712 -17.6302594 47.76029755 -17.62817383 46.46704102 C-17.62913055 45.18487198 -17.63008728 43.90270294 -17.631073 42.5816803 C-17.63254804 39.86726681 -17.63040127 37.15288623 -17.62573242 34.43847656 C-17.62002954 30.95228686 -17.62331886 27.46617404 -17.62930489 23.97998714 C-17.63377787 20.66316552 -17.63065062 17.34636482 -17.62817383 14.02954102 C-17.63019806 12.77229721 -17.63222229 11.51505341 -17.63430786 10.2197113 C-17.6311557 9.0650386 -17.62800354 7.91036591 -17.62475586 6.72070312 C-17.62396027 5.69859238 -17.62316467 4.67648163 -17.62234497 3.62339783 C-17.27968492 -2.60653407 -4.70313313 0.00275916 0 0 Z " fill="#FFFFFF" transform="translate(840.495361328125,590.685302734375)" />
<path d="M0 0 C2.33592128 1.67576961 3.94057292 3.23476788 4.52734375 6.1015625 C4.57761719 6.80152344 4.62789062 7.50148438 4.6796875 8.22265625 C4.8240625 9.50140625 4.9684375 10.78015625 5.1171875 12.09765625 C7.3671875 14.01432292 7.3671875 14.01432292 10.1171875 15.09765625 C12.2421875 16.2109375 12.2421875 16.2109375 14.1171875 18.09765625 C14.69140625 21.49609375 14.69140625 21.49609375 14.8046875 25.47265625 C14.95493876 29.82564999 15.26322343 33.83581688 16.1171875 38.09765625 C15.7871875 38.42765625 15.4571875 38.75765625 15.1171875 39.09765625 C15.09826449 41.05723883 15.08181853 43.01688913 15.08032227 44.9765625 C14.97008077 55.17337543 14.97008077 55.17337543 12.34375 58.01953125 C10.1796875 59.09765625 10.1796875 59.09765625 7.96875 60.00390625 C5.91665993 60.94691567 5.91665993 60.94691567 5.390625 63.19140625 C5.27976562 63.98546875 5.16890625 64.77953125 5.0546875 65.59765625 C4.53100404 69.20926634 3.9175373 70.84638034 0.9921875 73.09765625 C-2.81076171 75.33699618 -6.43755187 76.82357955 -10.8828125 76.09765625 C-14.52730995 74.24949877 -17.98069834 71.99977041 -20.8828125 69.09765625 C-20.9240625 68.02515625 -20.9653125 66.95265625 -21.0078125 65.84765625 C-21.94895519 61.81418758 -22.19181144 61.46675902 -25.3828125 59.28515625 C-26.011875 58.90746094 -26.6409375 58.52976562 -27.2890625 58.140625 C-28.8828125 57.09765625 -28.8828125 57.09765625 -29.8828125 55.09765625 C-30.09164164 52.51049522 -30.25742858 49.93892384 -30.3828125 47.34765625 C-30.62142413 42.52239881 -30.98465336 37.85789971 -31.8828125 33.09765625 C-31.2228125 33.09765625 -30.5628125 33.09765625 -29.8828125 33.09765625 C-29.94082031 32.06125 -29.99882813 31.02484375 -30.05859375 29.95703125 C-30.10550288 28.58728469 -30.15100182 27.21748933 -30.1953125 25.84765625 C-30.23720703 25.16574219 -30.27910156 24.48382813 -30.32226562 23.78125 C-30.37109375 21.76953125 -30.37109375 21.76953125 -29.8828125 18.09765625 C-26.78630592 14.87728941 -24.31112819 13.60374947 -19.8828125 13.09765625 C-19.94082031 12.50597656 -19.99882813 11.91429687 -20.05859375 11.3046875 C-20.31365262 6.83751352 -20.40132506 4.78900634 -17.6328125 1.09765625 C-12.35567507 -2.74026188 -5.89817208 -2.82671733 0 0 Z " fill="#07AE7A" transform="translate(996.8828125,438.90234375)" />
<path d="M0 0 C1.13432465 -0.00708481 2.26864929 -0.01416962 3.43734741 -0.02146912 C5.31301643 -0.01775299 5.31301643 -0.01775299 7.22657776 -0.01396179 C9.19488556 -0.02162819 9.19488556 -0.02162819 11.20295715 -0.02944946 C14.80832525 -0.04286871 18.41358871 -0.04341488 22.01897693 -0.04088616 C25.02605032 -0.03981838 28.03310237 -0.04469489 31.04017121 -0.04949158 C38.13308459 -0.06059699 45.22594503 -0.06101845 52.31886292 -0.05497742 C59.64205589 -0.04893626 66.96505681 -0.06124978 74.28821701 -0.08254749 C80.570218 -0.10014709 86.85215777 -0.10616743 93.13418251 -0.10290974 C96.88852377 -0.10109403 100.64272805 -0.10376149 104.39704704 -0.11762428 C108.58253884 -0.13250006 112.76763825 -0.12324693 116.95314026 -0.11161804 C118.20156204 -0.11926178 119.44998383 -0.12690552 120.73623657 -0.13478088 C122.44195328 -0.12425941 122.44195328 -0.12425941 124.18212891 -0.11352539 C125.66738902 -0.113777 125.66738902 -0.113777 127.18265438 -0.1140337 C129.65455627 0.26069641 129.65455627 0.26069641 131.47168064 1.59463215 C133.33602831 4.22054052 133.05094858 6.59463506 133.02955627 9.76069641 C133.03729065 10.90538391 133.04502502 12.05007141 133.05299377 13.22944641 C132.65455627 16.26069641 132.65455627 16.26069641 131.47168064 17.92676067 C128.96661749 19.76570649 127.27567598 19.63544228 124.18212891 19.63491821 C123.04498444 19.64193253 121.90783997 19.64894684 120.73623657 19.65617371 C119.48781479 19.64852997 118.23939301 19.64088623 116.95314026 19.63301086 C115.63918274 19.63666153 114.32522522 19.64031219 112.97145081 19.64407349 C109.36613977 19.65348702 105.76109999 19.64405386 102.15581012 19.63074136 C98.38643518 19.61943621 94.61707378 19.62353358 90.84768677 19.62548828 C84.51837219 19.62637145 78.18916468 19.61528531 71.85987854 19.59687805 C64.53610759 19.57570091 57.21249341 19.57220233 49.88869804 19.57844001 C42.84979962 19.58412869 35.81095656 19.57849447 28.77206612 19.56726646 C25.77329042 19.56261482 22.77454852 19.56174905 19.77577019 19.56385231 C15.592622 19.56608048 11.40969475 19.55164751 7.22657776 19.53535461 C5.35090874 19.53907074 5.35090874 19.53907074 3.43734741 19.54286194 C2.30302277 19.53577713 1.16869812 19.52869232 0 19.52139282 C-0.98979638 19.51933995 -1.97959276 19.51728708 -2.99938297 19.515172 C-5.34544373 19.26069641 -5.34544373 19.26069641 -7.34544373 17.26069641 C-7.54393443 14.715345 -7.62396147 12.30352883 -7.59544373 9.76069641 C-7.6031781 9.07104797 -7.61091248 8.38139954 -7.61888123 7.67085266 C-7.59383673 1.2469393 -6.26661269 0.01299716 0 0 Z " fill="#0292D5" transform="translate(699.3454437255859,375.7393035888672)" />
<path d="M0 0 C1.13576981 -0.00281982 2.27153961 -0.00563965 3.44172668 -0.00854492 C5.31975227 -0.00550858 5.31975227 -0.00550858 7.23571777 -0.00241089 C8.54952927 -0.00416321 9.86334076 -0.00591553 11.21696472 -0.00772095 C14.82637893 -0.01228962 18.43576464 -0.01050804 22.04517937 -0.00734186 C25.81722975 -0.00481535 29.58927765 -0.00715661 33.36132812 -0.00872803 C39.69657836 -0.01054887 46.03181696 -0.00814565 52.36706543 -0.00338745 C59.69816537 0.00205501 67.02923751 0.00029229 74.36033678 -0.00521386 C80.64740757 -0.00974741 86.93446998 -0.01039434 93.22154188 -0.00777519 C96.97971522 -0.00621375 100.73787547 -0.00601501 104.49604797 -0.00931168 C108.68402766 -0.01272856 112.87195918 -0.00799668 117.05993652 -0.00241089 C118.31195358 -0.00443512 119.56397064 -0.00645935 120.85392761 -0.00854492 C122.55758232 -0.00431519 122.55758232 -0.00431519 124.2956543 0 C125.2867495 0.00037703 126.2778447 0.00075405 127.29897308 0.0011425 C129.64782715 0.12698364 129.64782715 0.12698364 131.64782715 1.12698364 C131.72856918 3.75259474 131.78818945 6.3757404 131.83532715 9.00198364 C131.86046387 9.74835083 131.88560059 10.49471802 131.91149902 11.26370239 C131.9407959 13.43167114 131.9407959 13.43167114 131.64782715 17.12698364 C128.27532882 19.37531586 127.15915584 19.37792352 123.21336365 19.38095093 C122.08463333 19.38659058 120.95590302 19.39223022 119.79296875 19.39804077 C118.55389771 19.39399231 117.31482666 19.38994385 116.03820801 19.38577271 C114.08190208 19.39102966 114.08190208 19.39102966 112.08607483 19.39639282 C108.5076822 19.40551866 104.92940476 19.40197204 101.35101008 19.39563465 C97.60965966 19.39057672 93.86831919 19.39526543 90.12696838 19.39840698 C83.84475938 19.40204678 77.56259738 19.3972467 71.28039551 19.38772583 C64.01116197 19.3768365 56.74204057 19.38037024 49.47280973 19.39137864 C43.23666641 19.40044549 37.00055691 19.4017399 30.76440912 19.3965013 C27.03753575 19.39337888 23.31071515 19.39297978 19.58384514 19.39957428 C15.43184607 19.40640777 11.28004137 19.39694488 7.12805176 19.38577271 C5.88695648 19.38982117 4.64586121 19.39386963 3.36715698 19.39804077 C2.24124649 19.39240112 1.115336 19.38676147 -0.04469299 19.38095093 C-1.02711503 19.38019688 -2.00953707 19.37944283 -3.02172947 19.37866592 C-5.35217285 19.12698364 -5.35217285 19.12698364 -7.35217285 17.12698364 C-7.4972498 14.38212772 -7.53869708 11.74217821 -7.47717285 9.00198364 C-7.4636377 7.8708313 -7.4636377 7.8708313 -7.4498291 6.71682739 C-7.42624155 4.8534111 -7.39037004 2.99015772 -7.35217285 1.12698364 C-4.76311577 -0.1675449 -2.90019658 0.00110327 0 0 Z " fill="#0292D5" transform="translate(699.3521728515625,339.8730163574219)" />
<path d="M0 0 C1.07549606 -0.00426498 2.15099213 -0.00852997 3.25907898 -0.01292419 C4.44923615 -0.01247101 5.63939331 -0.01201782 6.86561584 -0.0115509 C8.73370155 -0.01658882 8.73370155 -0.01658882 10.63952637 -0.02172852 C14.06513058 -0.02962452 17.4906742 -0.03290747 20.91628337 -0.0335443 C23.77178989 -0.03449177 26.62729055 -0.03816819 29.48279482 -0.0417164 C36.21750119 -0.04986863 42.95219418 -0.05229993 49.68690491 -0.05158997 C56.64367033 -0.05098898 63.60035825 -0.06154305 70.55710405 -0.07733363 C76.52144104 -0.09039125 82.48575264 -0.09577461 88.45010382 -0.09513456 C92.0160488 -0.09487904 95.58192496 -0.09775955 99.14785576 -0.10831261 C103.12281727 -0.11975425 107.09767176 -0.11525769 111.07264709 -0.10920715 C112.26078003 -0.11482666 113.44891296 -0.12044617 114.67304993 -0.12623596 C116.29052376 -0.11994423 116.29052376 -0.11994423 117.94067383 -0.11352539 C118.88144744 -0.11407016 119.82222105 -0.11461493 120.79150295 -0.1151762 C123.03382874 0.13371277 123.03382874 0.13371277 125.03382874 2.13371277 C125.17880858 4.71435406 125.22060419 7.18315161 125.15882874 9.75871277 C125.1498053 10.46511902 125.14078186 11.17152527 125.13148499 11.89933777 C125.10790477 13.64427375 125.07203334 15.38903572 125.03382874 17.13371277 C122.51755226 18.39185101 120.80229631 18.25955699 117.98536682 18.26069641 C116.38268196 18.26492615 116.38268196 18.26492615 114.74761963 18.26924133 C112.9818029 18.26620499 112.9818029 18.26620499 111.18031311 18.2631073 C109.32663872 18.26573578 109.32663872 18.26573578 107.43551636 18.26841736 C104.0409593 18.27207193 100.64646295 18.27120473 97.25190926 18.26803827 C93.70407655 18.26551141 90.1562465 18.26785312 86.6084137 18.26942444 C80.64979078 18.27124518 74.69118024 18.26884233 68.7325592 18.26408386 C61.83771125 18.25864142 54.94289287 18.26040415 48.04804564 18.26591027 C42.13464463 18.27044412 36.22125254 18.27109061 30.30785036 18.2684716 C26.77324215 18.26691033 23.23864785 18.26671098 19.70404053 18.27000809 C15.76513006 18.27342549 11.82625287 18.26869261 7.88734436 18.2631073 C6.71013321 18.26513153 5.53292206 18.26715576 4.32003784 18.26924133 C3.25158127 18.26642151 2.18312469 18.26360168 1.08229065 18.26069641 C0.1501902 18.26031939 -0.78191025 18.25994236 -1.74225616 18.25955391 C-3.96617126 18.13371277 -3.96617126 18.13371277 -5.96617126 17.13371277 C-5.99301805 14.48781263 -6.01293483 11.84218181 -6.02867126 9.19621277 C-6.03705017 8.44146667 -6.04542908 7.68672058 -6.05406189 6.90910339 C-6.06269567 4.98376963 -6.01841459 3.05835696 -5.96617126 1.13371277 C-4.29841083 -0.53404767 -2.2919539 0.0040844 0 0 Z " fill="#0292D5" transform="translate(625.9661712646484,448.8662872314453)" />
<path d="M0 0 C4.30489711 0.03060353 5.90936822 0.29353952 9.015625 3.3515625 C10.95617552 6.19453686 12.73905579 9.03814775 14.43115234 12.03076172 C16.16234261 15.01783602 18.12016619 17.8335279 20.0625 20.6875 C21.20953109 22.41587238 22.35583764 24.14472722 23.5 25.875 C26.49837889 23.06606117 28.67378929 20.25156454 30.8125 16.75 C31.72902344 15.31333984 31.72902344 15.31333984 32.6640625 13.84765625 C33.8608479 11.90988244 35.0050373 9.93831752 36.0859375 7.93359375 C37.71461172 5.14101333 39.06397083 3.00822035 41.5 0.875 C45.63095542 -0.00683038 49.35356922 0.12288716 53.5 0.875 C54.5 1.875 54.5 1.875 54.62025452 4.27308655 C54.61803391 5.33675949 54.61581329 6.40043243 54.61352539 7.49633789 C54.61344986 8.69750748 54.61337433 9.89867706 54.61329651 11.13624573 C54.60813522 12.4435112 54.60297394 13.75077667 54.59765625 15.09765625 C54.59579198 16.44144132 54.59436812 17.78522707 54.59336853 19.12901306 C54.58954402 22.67182277 54.57971432 26.2145917 54.56866455 29.75738525 C54.55844899 33.37015227 54.5538706 36.98292584 54.54882812 40.59570312 C54.53809198 47.68882039 54.52049572 54.78190325 54.5 61.875 C50.21 61.875 45.92 61.875 41.5 61.875 C41.17 49.335 40.84 36.795 40.5 23.875 C36.54 29.815 36.54 29.815 32.5 35.875 C30.17590433 39.21588753 27.85137318 42.55368539 25.5 45.875 C22.51565766 45.55667015 21.59188622 44.97916252 19.5703125 42.6875 C18.60738281 41.2953125 18.60738281 41.2953125 17.625 39.875 C16.98820313 38.9675 16.35140625 38.06 15.6953125 37.125 C12.94526702 33.05375829 10.21815841 28.96758482 7.5 24.875 C7.47494385 25.96031006 7.4498877 27.04562012 7.42407227 28.16381836 C7.33016245 32.176316 7.22990233 36.18863382 7.12768555 40.20092773 C7.08427427 41.94014288 7.04260388 43.67940235 7.00268555 45.41870117 C6.94513232 47.91338488 6.8813958 50.4078441 6.81640625 52.90234375 C6.79133751 54.0757859 6.79133751 54.0757859 6.76576233 55.27293396 C6.61387171 60.76112829 6.61387171 60.76112829 5.5 61.875 C3.48035801 61.94744053 1.45832876 61.95877188 -0.5625 61.9375 C-1.66722656 61.92847656 -2.77195312 61.91945313 -3.91015625 61.91015625 C-5.19212891 61.89275391 -5.19212891 61.89275391 -6.5 61.875 C-6.52312792 54.06924805 -6.54091738 46.26350405 -6.55181217 38.45772648 C-6.55704002 34.8335404 -6.56413587 31.2093777 -6.57543945 27.58520508 C-6.58627184 24.09040025 -6.59227758 20.59561796 -6.59487724 17.10079765 C-6.59763551 15.11260611 -6.60544688 13.12442369 -6.61329651 11.13624573 C-6.61337204 9.93507614 -6.61344757 8.73390656 -6.61352539 7.49633789 C-6.615746 6.43266495 -6.61796661 5.368992 -6.62025452 4.27308655 C-6.40247147 -0.06989037 -3.91123497 0.4049511 0 0 Z " fill="#FFFFFF" transform="translate(756.5,590.125)" />
<path d="M0 0 C5.5327292 1.88050627 9.9779028 4.9228767 13 10 C13.2475 11.11375 13.495 12.2275 13.75 13.375 C15.50549206 18.46592697 18.84393097 20.76648696 23 24 C24 25 24 25 24.09765625 28.81640625 C24.09098089 30.39846682 24.07901875 31.98051159 24.0625 33.5625 C24.05798828 34.36880859 24.05347656 35.17511719 24.04882812 36.00585938 C24.03700518 38.00393756 24.01906914 40.00197783 24 42 C25.65 42.66 27.3 43.32 29 44 C28.6875 46.375 28.6875 46.375 28 49 C27.01 49.66 26.02 50.32 25 51 C24.52465009 54.37647589 24.52465009 54.37647589 24.5 58.25 C24.37154102 63.66668692 23.85486326 67.33985557 21 72 C20.34 72.45375 19.68 72.9075 19 73.375 C16.62450672 75.00798922 16.62450672 75.00798922 15.75 78.75 C13.62406293 85.05810835 8.5144561 88.18725258 3.3125 91.9375 C-3.03523627 93.97356635 -9.6310912 94.26840091 -15.92578125 91.8984375 C-21.44086624 88.84267189 -24.61849213 85.84551931 -27 80 C-27 78.68 -27 77.36 -27 76 C-27.556875 75.79375 -28.11375 75.5875 -28.6875 75.375 C-31.8766208 73.47876601 -34.14549079 71.18779699 -36 68 C-36.5958051 65.11346912 -36.56632421 62.31367275 -36.5 59.375 C-36.43440556 56.43838755 -36.59816894 53.94873087 -37 51 C-39.35954947 48.4438453 -39.35954947 48.4438453 -42 47 C-41.8125 45.125 -41.8125 45.125 -41 43 C-38.44921875 41.8671875 -38.44921875 41.8671875 -36 41 C-36.08121094 40.01 -36.16242187 39.02 -36.24609375 38 C-36.93146069 25.99316137 -36.93146069 25.99316137 -32.6875 21.1875 C-30.55083451 19.15833969 -28.46494041 17.64329361 -26 16 C-25.938125 14.948125 -25.87625 13.89625 -25.8125 12.8125 C-23.25609679 0.81706956 -10.31853251 -1.09914803 0 0 Z M-16.3125 11.5625 C-18.84046378 15.21400324 -18.33151368 18.69032214 -18 23 C-19.093125 23.268125 -20.18625 23.53625 -21.3125 23.8125 C-25.42143566 25.00837199 -25.42143566 25.00837199 -28 28 C-28.2172101 30.64996326 -28.28351554 33.05076558 -28.1875 35.6875 C-28.17396484 36.38939453 -28.16042969 37.09128906 -28.14648438 37.81445312 C-28.11120182 39.54329829 -28.05739583 41.27174765 -28 43 C-28.66 43 -29.32 43 -30 43 C-29.84015625 43.82371094 -29.6803125 44.64742188 -29.515625 45.49609375 C-28.84743164 50.03677133 -28.75460731 54.5814633 -28.74609375 59.16601562 C-28.60532329 63.06683921 -28.14678349 64.82138101 -25.640625 67.87109375 C-23.00255254 70.06358124 -23.00255254 70.06358124 -20 72 C-19.896875 73.093125 -19.79375 74.18625 -19.6875 75.3125 C-18.78783722 80.13796401 -16.97040253 81.27521395 -13 84 C-12.38125 84.45375 -11.7625 84.9075 -11.125 85.375 C-6.88309877 86.62261801 -2.95497082 85.84982162 1.00390625 84.12890625 C3.86357301 82.40355407 5.68247673 81.14557415 6.59765625 77.84375 C6.82715139 76.26102492 7.05230646 74.67766533 7.2734375 73.09375 C8 71 8 71 9.8515625 69.90625 C10.58117187 69.6071875 11.31078125 69.308125 12.0625 69 C14.33857842 68.00639319 14.33857842 68.00639319 16 66 C16.92061105 60.94169754 16.98789354 56.04867687 16.94873047 50.921875 C17.01212932 48.54532381 17.50487099 46.31952328 18 44 C17.67 43.67 17.34 43.34 17 43 C16.83073131 39.84784076 16.70269984 36.70317538 16.65820312 33.546875 C16.49330969 29.38026581 16.49330969 29.38026581 14.125 26.09765625 C12.54722929 25.28266807 10.93682636 24.5302256 9.3125 23.8125 C8.549375 23.214375 7.78625 22.61625 7 22 C6.77468287 20.00433398 6.55403142 18.00709136 6.41015625 16.00390625 C5.82316101 13.13601524 4.22057624 11.57645317 1.87890625 9.90625 C-4.63954132 6.76221708 -10.47955833 7.62132319 -16.3125 11.5625 Z " fill="#FFFFFF" transform="translate(995,429)" />
<path d="M0 0 C28.96444444 0 28.96444444 0 37 8 C41.22279312 13.52758875 41.85224928 19.22409216 41 26 C39.70463097 32.55178384 37.00497928 37.54035745 32 42 C21.52829349 48.28302391 13.48640266 46 0 46 C0 30.82 0 15.64 0 0 Z " fill="#FFFFFF" transform="translate(586,244)" />
<path d="M0 0 C1.14866798 0.00842926 1.14866798 0.00842926 2.32054138 0.01702881 C3.12716721 0.01513046 3.93379303 0.01323212 4.76486206 0.01127625 C7.43911873 0.00756255 10.1131056 0.01828109 12.78733826 0.02947998 C14.64056873 0.03067157 16.49379981 0.03112499 18.34703064 0.03086853 C22.23423535 0.03243443 26.12134809 0.04073212 30.00852966 0.05413818 C34.99900541 0.07112816 39.98938001 0.07495258 44.97988129 0.074193 C48.80763215 0.07446453 52.63536077 0.07994307 56.46310425 0.08719444 C58.30356681 0.0903836 60.1440319 0.09234909 61.98449707 0.09308815 C64.55358705 0.0952491 67.12256838 0.10398803 69.69163513 0.11468506 C70.45741379 0.11423187 71.22319244 0.11377869 72.01217651 0.11331177 C77.27713364 0.14547142 77.27713364 0.14547142 79.50608826 1.25994873 C79.55990932 3.88522062 79.59967138 6.50939586 79.63108826 9.13494873 C79.64784607 9.88131592 79.66460388 10.62768311 79.68186951 11.39666748 C79.69948415 13.35189334 79.60929015 15.30736894 79.50608826 17.25994873 C76.98986291 19.77617408 75.44519888 19.50327727 72.01217651 19.53100586 C71.24639786 19.5269574 70.4806192 19.52290894 69.69163513 19.51873779 C68.88500931 19.52224243 68.07838348 19.52574707 67.24731445 19.52935791 C64.57306894 19.53818186 61.8990866 19.53232378 59.22483826 19.52557373 C57.37160694 19.52692019 55.51837597 19.52886056 53.66514587 19.53137207 C49.77794538 19.53432423 45.89083669 19.53002274 42.00364685 19.52069092 C37.01312198 19.50929633 32.0228122 19.51585531 27.03229523 19.52783585 C23.20453766 19.53505197 19.37683135 19.53276766 15.54907227 19.52758026 C13.70860773 19.52624308 11.8681386 19.52789388 10.02767944 19.53253937 C7.45850743 19.53760055 4.8896871 19.52990025 2.32054138 19.51873779 C1.55476273 19.52278625 0.78898407 19.52683472 0 19.53100586 C-5.26538322 19.48847725 -5.26538322 19.48847725 -7.49391174 17.25994873 C-7.69240245 14.71459732 -7.77242949 12.30278114 -7.74391174 9.75994873 C-7.75164612 9.07030029 -7.75938049 8.38065186 -7.76734924 7.67010498 C-7.74205174 1.18129584 -6.42813577 0.03861564 0 0 Z " fill="#0292D5" transform="translate(627.4939117431641,484.74005126953125)" />
<path d="M0 0 C26.515625 0 26.515625 0 31.7421875 4.5 C35.50854653 9.48717885 36.41598173 12.76027411 36 19 C34.33644155 24.16578678 32.61823319 27.10017916 28 30 C22.24800659 32.80585044 16.25712171 32.13904715 10 32 C10 36.62 10 41.24 10 46 C6.7 46 3.4 46 0 46 C0 30.82 0 15.64 0 0 Z " fill="#FFFFFF" transform="translate(544,244)" />
<path d="M0 0 C20.23229462 0 20.23229462 0 24.58984375 3.50390625 C28.97430417 8.1555637 30.63556524 11.96304366 31.375 18.125 C30.81484513 23.91326694 28.79376623 29.6178154 24.25 33.4921875 C16.2184217 38.23497296 9.79893355 37 0 37 C0 24.79 0 12.58 0 0 Z " fill="#1F3245" transform="translate(835,603)" />
<path d="M0 0 C0.97448593 -0.00637985 1.94897186 -0.0127597 2.95298767 -0.01933289 C4.54355736 -0.02100212 4.54355736 -0.02100212 6.16625977 -0.02270508 C7.24770767 -0.02603348 8.32915558 -0.02936188 9.44337463 -0.03279114 C11.73584567 -0.0378651 14.02832413 -0.04019932 16.32080078 -0.04003906 C19.83907168 -0.04222478 23.35702883 -0.06037361 26.87524414 -0.0793457 C29.09724827 -0.0822796 31.3192539 -0.08426442 33.54125977 -0.08520508 C34.59961533 -0.09239059 35.65797089 -0.09957611 36.74839783 -0.10697937 C37.72603592 -0.10390274 38.70367401 -0.10082611 39.7109375 -0.09765625 C41.00547096 -0.09979378 41.00547096 -0.09979378 42.32615662 -0.10197449 C44.42016602 0.14526367 44.42016602 0.14526367 46.42016602 2.14526367 C46.64520413 4.69374723 46.74456958 7.09790036 46.73266602 9.64526367 C46.7487793 10.33491211 46.76489258 11.02456055 46.78149414 11.73510742 C46.78344727 13.73901367 46.78344727 13.73901367 46.42016602 17.14526367 C43.23757378 19.26699183 42.44339777 19.39699617 38.796875 19.40405273 C37.86258163 19.41035706 36.92828827 19.41666138 35.96568298 19.42315674 C34.95937332 19.41910828 33.95306366 19.41505981 32.91625977 19.41088867 C31.88203384 19.41280212 30.84780792 19.41471558 29.78224182 19.41668701 C27.59587358 19.41804823 25.40949725 19.41435623 23.22314453 19.40600586 C19.86741085 19.39529478 16.51221124 19.40590905 13.15649414 19.41870117 C11.03474816 19.41737978 8.91300252 19.41481781 6.79125977 19.41088867 C5.78292587 19.41493713 4.77459198 19.4189856 3.73570251 19.42315674 C2.80456131 19.41685242 1.8734201 19.4105481 0.9140625 19.40405273 C0.09260239 19.40246155 -0.72885773 19.40087036 -1.57521057 19.39923096 C-3.57983398 19.14526367 -3.57983398 19.14526367 -5.57983398 17.14526367 C-5.75154301 14.41829144 -5.81229078 11.80619899 -5.76733398 9.08276367 C-5.76668945 8.33704102 -5.76604492 7.59131836 -5.76538086 6.82299805 C-5.70981337 0.02524238 -5.70981337 0.02524238 0 0 Z " fill="#0292D5" transform="translate(625.579833984375,339.854736328125)" />
<path d="M0 0 C1.43158447 -0.00945648 1.43158447 -0.00945648 2.89208984 -0.019104 C3.92543457 -0.01505554 4.9587793 -0.01100708 6.0234375 -0.00683594 C7.08127441 -0.00874939 8.13911133 -0.01066284 9.22900391 -0.01263428 C11.46842689 -0.01399696 13.70785776 -0.01029476 15.94726562 -0.00195312 C19.38429427 0.00874504 22.8208002 -0.00184581 26.2578125 -0.01464844 C28.42968866 -0.01332686 30.60156449 -0.0107645 32.7734375 -0.00683594 C33.80678223 -0.0108844 34.84012695 -0.01493286 35.90478516 -0.019104 C36.8591748 -0.01279968 37.81356445 -0.00649536 38.796875 0 C39.63911621 0.00159119 40.48135742 0.00318237 41.34912109 0.00482178 C43.3984375 0.25878906 43.3984375 0.25878906 45.3984375 2.25878906 C45.62347561 4.80727262 45.72284107 7.21142575 45.7109375 9.75878906 C45.72705078 10.4484375 45.74316406 11.13808594 45.75976562 11.84863281 C45.76171875 13.85253906 45.76171875 13.85253906 45.3984375 17.25878906 C42.21584527 19.38051722 41.42166926 19.51052156 37.77514648 19.51757812 C36.84085312 19.52388245 35.90655975 19.53018677 34.94395447 19.53668213 C33.93764481 19.53263367 32.93133514 19.52858521 31.89453125 19.52441406 C30.86030533 19.52632751 29.82607941 19.52824097 28.76051331 19.5302124 C26.57414507 19.53157362 24.38776873 19.52788162 22.20141602 19.51953125 C18.84568234 19.50882017 15.49048272 19.51943444 12.13476562 19.53222656 C10.01301965 19.53090517 7.891274 19.5283432 5.76953125 19.52441406 C4.76119736 19.52846252 3.75286346 19.53251099 2.713974 19.53668213 C1.78283279 19.53037781 0.85169159 19.52407349 -0.10766602 19.51757812 C-0.92912613 19.51598694 -1.75058624 19.51439575 -2.59693909 19.51275635 C-4.6015625 19.25878906 -4.6015625 19.25878906 -6.6015625 17.25878906 C-6.80005321 14.71343765 -6.88008025 12.30162148 -6.8515625 9.75878906 C-6.85929688 9.06914062 -6.86703125 8.37949219 -6.875 7.66894531 C-6.85208326 1.79080129 -5.91880403 0.01118198 0 0 Z " fill="#0292D5" transform="translate(626.6015625,375.7412109375)" />
<path d="M0 0 C11.22 0 22.44 0 34 0 C34 2.64 34 5.28 34 8 C33 9 33 9 30.77514648 9.11352539 C29.81680908 9.10828857 28.85847168 9.10305176 27.87109375 9.09765625 C26.31938477 9.09282227 26.31938477 9.09282227 24.73632812 9.08789062 C23.64771484 9.07951172 22.55910156 9.07113281 21.4375 9.0625 C19.7987793 9.05573242 19.7987793 9.05573242 18.12695312 9.04882812 C15.41794568 9.0369984 12.7089662 9.01906231 10 9 C10 12.3 10 15.6 10 19 C16.93 19 23.86 19 31 19 C31 21.97 31 24.94 31 28 C24.07 28 17.14 28 10 28 C10 33.94 10 39.88 10 46 C6.7 46 3.4 46 0 46 C0 30.82 0 15.64 0 0 Z " fill="#FFFFFF" transform="translate(635,244)" />
<path d="M0 0 C4.19114521 5.26579782 5.45431666 9.29882928 5 16 C3.11409369 21.43584759 -0.3679768 24.76811108 -5 28 C-10.10324201 29.70108067 -14.31873434 29.56521247 -19.1875 27.3125 C-23.71716583 24.83698495 -26.35336374 21.93990878 -28 17 C-28.77514301 10.44305257 -27.87712917 6.34415102 -24 1 C-16.83693779 -5.8049091 -7.9605911 -5.65894194 0 0 Z " fill="#FFFFFF" transform="translate(1013,541)" />
<path d="M0 0 C7 0 7 0 8.77270508 1.23754883 C9.18415771 1.80497803 9.59561035 2.37240723 10.01953125 2.95703125 C10.48423828 3.57513672 10.94894531 4.19324219 11.42773438 4.83007812 C11.88470703 5.48427734 12.34167969 6.13847656 12.8125 6.8125 C13.52696289 7.77639648 13.52696289 7.77639648 14.25585938 8.75976562 C16.24623303 11.46118697 18.13846801 14.20770202 20 17 C20.33 11.39 20.66 5.78 21 0 C23.31 0 25.62 0 28 0 C28 10.23 28 20.46 28 31 C22 31 22 31 19.11328125 28.296875 C18.16142831 27.12923342 17.22821497 25.9461927 16.3125 24.75 C15.84005859 24.16347656 15.36761719 23.57695313 14.88085938 22.97265625 C12.52205379 20.02828463 10.26404236 17.01872314 8 14 C7.67 19.61 7.34 25.22 7 31 C4.69 31 2.38 31 0 31 C0 20.77 0 10.54 0 0 Z " fill="#FFFFFF" transform="translate(1022,538)" />
<path d="M0 0 C2.16874252 0.50603992 3.99967627 0.99983813 6 2 C8.14243013 1.93631385 8.14243013 1.93631385 10.5625 1.625 C11.89087891 1.47611328 11.89087891 1.47611328 13.24609375 1.32421875 C14.60927734 1.16373047 14.60927734 1.16373047 16 1 C17.70826355 0.81186525 19.41659161 0.62431486 21.125 0.4375 C22.40375 0.293125 23.6825 0.14875 25 0 C27.10209857 3.15314785 27.2434761 3.86103081 27.1953125 7.44921875 C27.19031738 8.21322998 27.18532227 8.97724121 27.18017578 9.7644043 C27.15286377 11.21133667 27.15286377 11.21133667 27.125 12.6875 C27.08375 15.760625 27.0425 18.83375 27 22 C17.76 22 8.52 22 -1 22 C-1.020625 18.74125 -1.04125 15.4825 -1.0625 12.125 C-1.071604 11.09906738 -1.08070801 10.07313477 -1.09008789 9.01611328 C-1.09258545 8.20899902 -1.09508301 7.40188477 -1.09765625 6.5703125 C-1.10289307 5.74289551 -1.10812988 4.91547852 -1.11352539 4.06298828 C-1 2 -1 2 0 0 Z " fill="#F69841" transform="translate(974,375)" />
<path d="M0 0 C12.94736842 0 12.94736842 0 18 4 C20.99412031 8.34630368 21.54909652 11.78358304 21 17 C19.48558023 21.54325932 18.25181633 24.60835331 14 27 C11 28 11 28 0 28 C0 18.76 0 9.52 0 0 Z " fill="#D92330" transform="translate(596,253)" />
<path d="M0 0 C3.125 1.625 3.125 1.625 4.125 3.625 C3.135 4.945 2.145 6.265 1.125 7.625 C0.238125 7.295 -0.64875 6.965 -1.5625 6.625 C-4.58423347 5.71277857 -6.75873706 5.44169042 -9.875 5.625 C-10.535 6.945 -11.195 8.265 -11.875 9.625 C-11.13894531 9.79515625 -10.40289063 9.9653125 -9.64453125 10.140625 C0.22080973 12.59067005 0.22080973 12.59067005 4.125 16.625 C5.56930855 19.51361709 5.50188506 21.42147701 5.125 24.625 C2.33308371 27.93121666 0.17624826 30.41749396 -4.23046875 30.86328125 C-10.75586342 31.03429159 -14.5316223 30.42473525 -19.875 26.625 C-18.42228878 22.87216267 -18.42228878 22.87216267 -15.9375 21.75 C-13.875 21.625 -13.875 21.625 -10.875 23.625 C-8.81790404 23.86555468 -8.81790404 23.86555468 -6.6875 23.75 C-5.429375 23.70875 -4.17125 23.6675 -2.875 23.625 C-2.875 22.635 -2.875 21.645 -2.875 20.625 C-3.61105469 20.39425781 -4.34710937 20.16351562 -5.10546875 19.92578125 C-15.55488715 16.4334393 -15.55488715 16.4334393 -18.875 11.625 C-19.54175636 8.49124509 -19.53923104 6.71100511 -17.84765625 3.9453125 C-13.06587808 -2.13001661 -7.03736676 -2.86707534 0 0 Z " fill="#FFFFFF" transform="translate(976.875,538.375)" />
<path d="M0 0 C5.94 0 11.88 0 18 0 C18.08114826 3.70877584 18.14057594 7.41576511 18.1875 11.125 C18.21263672 12.17171875 18.23777344 13.2184375 18.26367188 14.296875 C18.31735463 19.95145821 18.28169108 24.15295022 15 29 C12.34177238 31.65822762 10.8939746 31.35980571 7.1875 31.4375 C1.64068572 31.37757043 1.64068572 31.37757043 -0.90234375 29.87890625 C-2.25 28.5 -2.25 28.5 -4 26 C-2.35 24.68 -0.7 23.36 1 22 C1.99 22.66 2.98 23.32 4 24 C6.58380177 24.25030977 6.58380177 24.25030977 9 24 C10.51421001 22.48578999 10.21309856 21.07527232 10.31640625 18.96484375 C10.35830078 18.15595703 10.40019531 17.34707031 10.44335938 16.51367188 C10.50233398 15.2384668 10.50233398 15.2384668 10.5625 13.9375 C10.60568359 13.08349609 10.64886719 12.22949219 10.69335938 11.34960938 C10.79976702 9.23327963 10.90041731 7.11666187 11 5 C7.37 5 3.74 5 0 5 C0 3.35 0 1.7 0 0 Z " fill="#FFFFFF" transform="translate(936,538)" />
<path d="M0 0 C2.74337994 1.64602796 3.64802249 2.8209984 4.55859375 5.87109375 C5.21545592 9.45336268 5.22344507 11.48607633 3.75 14.875 C1.23149634 17.93318302 -0.43023732 18.92614188 -4.375 19.4375 C-8.89124214 18.89243629 -10.15293218 17.43322884 -13 14 C-13.33 13.67 -13.66 13.34 -14 13 C-14.47584146 8.24158539 -14.68250989 6.05678951 -12.0625 2 C-7.95942904 -0.67955655 -4.77306382 -0.93676954 0 0 Z " fill="#07AE7A" transform="translate(1006,544)" />
<path d="M0 0 C3 1 3 1 4 3 C4.10171279 5.00557469 4.13841347 7.01456454 4.14526367 9.02270508 C4.15483345 10.92026299 4.15483345 10.92026299 4.16459656 12.8561554 C4.16612549 14.24394696 4.16723932 15.63173903 4.16796875 17.01953125 C4.1711816 18.4395908 4.17454569 19.85965001 4.17805481 21.27970886 C4.18404845 24.25980394 4.18589455 27.23987002 4.18530273 30.2199707 C4.18520127 34.03314951 4.1988356 37.84614143 4.21607494 41.65927601 C4.22721243 44.5941401 4.22922138 47.52895933 4.22869301 50.46384239 C4.22987117 51.86921519 4.2342838 53.27458921 4.24202538 54.67994118 C4.25185688 56.64964005 4.24767482 58.61939366 4.24291992 60.58911133 C4.24434494 61.70892899 4.24576996 62.82874664 4.24723816 63.98249817 C3.99677387 67.03937434 3.29582224 69.2377168 2 72 C0.99983813 69.99967627 0.50603992 68.16874252 0 66 C-1.32 67.65 -2.64 69.3 -4 71 C-4.66 70.67 -5.32 70.34 -6 70 C-5.360625 69.0925 -4.72125 68.185 -4.0625 67.25 C-1.16475975 62.68386385 -0.87353657 59.40048665 -0.79467773 54.03808594 C-0.77473251 52.83714294 -0.75478729 51.63619995 -0.73423767 50.39886475 C-0.70916893 48.46119232 -0.70916893 48.46119232 -0.68359375 46.484375 C-0.66301037 45.14487079 -0.64201354 43.80537287 -0.62062073 42.46588135 C-0.56554291 38.94784659 -0.51607094 35.4297546 -0.46777344 31.91162109 C-0.41745375 28.31863336 -0.36182244 24.72572827 -0.30664062 21.1328125 C-0.199234 14.08861345 -0.09775051 7.0443402 0 0 Z " fill="#FFFFFF" transform="translate(691,238)" />
<path d="M0 0 C10.74695122 -0.42987805 10.74695122 -0.42987805 15 3 C15.33 3.33 15.66 3.66 16 4 C15.64758668 10.34343984 15.64758668 10.34343984 13.30859375 12.71484375 C9.10674574 15.05394357 4.70799638 14.16814273 0 14 C0 9.38 0 4.76 0 0 Z " fill="#D92330" transform="translate(554,253)" />
<path d="M0 0 C0.72822464 0.00141495 1.45644928 0.0028299 2.20674133 0.00428772 C4.52979664 0.00987966 6.85275513 0.02243063 9.17578125 0.03515625 C10.75195173 0.04017229 12.32812373 0.04473502 13.90429688 0.04882812 C17.76566223 0.05984645 21.62695533 0.07710551 25.48828125 0.09765625 C25.48828125 0.42765625 25.48828125 0.75765625 25.48828125 1.09765625 C24.44027344 1.18853516 24.44027344 1.18853516 23.37109375 1.28125 C22.46101562 1.36503906 21.5509375 1.44882812 20.61328125 1.53515625 C19.70835937 1.61636719 18.8034375 1.69757813 17.87109375 1.78125 C15.47717264 1.9675491 15.47717264 1.9675491 13.48828125 3.09765625 C11.67486283 3.18236989 9.85833964 3.20486708 8.04296875 3.1953125 C6.42841797 3.19047852 6.42841797 3.19047852 4.78125 3.18554688 C3.65332031 3.17716797 2.52539062 3.16878906 1.36328125 3.16015625 C0.22761719 3.15564453 -0.90804687 3.15113281 -2.078125 3.14648438 C-4.88937513 3.1346724 -7.70052105 3.11820132 -10.51171875 3.09765625 C-10.51171875 2.43765625 -10.51171875 1.77765625 -10.51171875 1.09765625 C-6.9424449 -0.0921017 -3.71224903 -0.0271253 0 0 Z " fill="#07AE7A" transform="translate(986.51171875,396.90234375)" />
<path d="M0 0 C0.5625 1.9375 0.5625 1.9375 1 4 C-0.87643761 5.87643761 -3.49805701 5.17984987 -5.9921875 5.23046875 C-8 5 -8 5 -11 3 C-11 2.34 -11 1.68 -11 1 C-6.92630576 -1.03684712 -4.41062136 -1.0257259 0 0 Z " fill="#07AE7A" transform="translate(974,558)" />
<path d="M0 0 C1 3 1 3 -0.1875 5.4375 C-1.93979049 7.91487622 -3.78315483 9.9360407 -6 12 C-6 8.36804504 -5.04546845 7.25286089 -3 4.3125 C-2.443125 3.50425781 -1.88625 2.69601562 -1.3125 1.86328125 C-0.879375 1.24839844 -0.44625 0.63351562 0 0 Z " fill="#1F3245" transform="translate(797,613)" />
<path d="M0 0 C0 3 0 3 -2.5 5.6875 C-3.325 6.450625 -4.15 7.21375 -5 8 C-5.66 7.67 -6.32 7.34 -7 7 C-2.25 1.125 -2.25 1.125 0 0 Z " fill="#1F3245" transform="translate(727,555)" />
<path d="M0 0 C0.99 0.33 1.98 0.66 3 1 C2.2884375 1.804375 2.2884375 1.804375 1.5625 2.625 C-0.28186076 5.42842836 -0.62456847 7.69620258 -1 11 C-1.33 11 -1.66 11 -2 11 C-2.25 3.375 -2.25 3.375 0 0 Z " fill="#07AE7A" transform="translate(994,546)" />
</svg>